<mxfile host="app.diagrams.net" modified="2024-02-23T22:21:35.064Z" agent="Mozilla/5.0 (X11; Linux x86_64) AppleWebKit/537.36 (KHTML, like Gecko) Chrome/118.0.0.0 Safari/537.36" version="23.1.6" etag="UelIxEAwAuZzmuQX4JXe" type="github">
  <diagram name="Strona-1" id="w7yog7lX6LdVZluEJImR">
    <mxGraphModel>
      <root>
        <mxCell id="0" />
        <mxCell id="1" parent="0" />
      </root>
    </mxGraphModel>
  </diagram>
</mxfile>
